
<global>
ampeg_attack=0.002
ampeg_release=0.35
</global>

<group>
group_label=Group

<region>
end=148501
hikey=G5
hivel=127
lokey=F#5
lovel=1
offset=4877
pitch_keycenter=F#5
sample=om28_Scoop_MF_F#5.opus
</region>

<region>
end=146568
hikey=F3
hivel=127
lokey=E3
lovel=1
offset=5033
pitch_keycenter=E3
sample=om28_Scoop_MF_E3.opus
</region>

<region>
end=169057
hikey=F2
hivel=127
lokey=E2
lovel=1
offset=5950
pitch_keycenter=E2
sample=om28_Scoop_MF_E2.opus
</region>

<region>
end=140366
hikey=D#5
hivel=127
lokey=D5
lovel=1
offset=6078
pitch_keycenter=D5
sample=om28_Scoop_MF_D5.opus
</region>

<region>
end=162283
hikey=F4
hivel=127
lokey=E4
lovel=1
offset=7398
pitch_keycenter=E4
sample=om28_Scoop_MF_E4.opus
</region>

<region>
end=153287
hikey=C#4
hivel=127
lokey=C4
lovel=1
offset=2901
sample=om28_Scoop_MF_C4.opus
</region>

<region>
end=145838
hikey=G3
hivel=127
lokey=F#3
lovel=1
offset=2161
pitch_keycenter=F#3
sample=om28_Scoop_MF_F#3.opus
</region>

<region>
end=164632
hikey=C#3
hivel=127
lokey=C3
lovel=1
offset=11675
pitch_keycenter=C3
sample=om28_Scoop_MF_C3.opus
</region>

<region>
end=163048
hikey=D#3
hivel=127
lokey=D3
lovel=1
offset=6916
pitch_keycenter=D3
sample=om28_Scoop_MF_D3.opus
</region>

<region>
hikey=A4
hivel=127
lokey=G#4
lovel=1
offset=10598
pitch_keycenter=G#4
sample=om28_Scoop_MF_G#4.opus
</region>

<region>
end=166835
hikey=D#2
hivel=127
lokey=C2
lovel=1
offset=3359
pitch_keycenter=D2
sample=om28_Scoop_MF_D2.opus
</region>

<region>
end=145382
hikey=A3
hivel=127
lokey=G#3
lovel=1
offset=2680
pitch_keycenter=G#3
sample=om28_Scoop_MF_G#3.opus
</region>

<region>
end=157187
hikey=B3
hivel=127
lokey=A#3
lovel=1
offset=8304
pitch_keycenter=A#3
sample=om28_Scoop_MF_A#3.opus
</region>

<region>
end=151755
hikey=D#4
hivel=127
lokey=D4
lovel=1
offset=3145
pitch_keycenter=D4
sample=om28_Scoop_MF_D4.opus
</region>

<region>
end=158129
hikey=A2
hivel=127
lokey=G#2
lovel=1
offset=2737
pitch_keycenter=G#2
sample=om28_Scoop_MF_G#2.opus
</region>

<region>
end=162474
hikey=G2
hivel=127
lokey=F#2
lovel=1
offset=3750
pitch_keycenter=F#2
sample=om28_Scoop_MF_F#2.opus
</region>

<region>
end=149588
hikey=B4
hivel=127
lokey=A#4
lovel=1
offset=4383
pitch_keycenter=A#4
sample=om28_Scoop_MF_A#4.opus
</region>

<region>
end=133777
hikey=F5
hivel=127
lokey=E5
lovel=1
offset=1527
pitch_keycenter=E5
sample=om28_Scoop_MF_E5.opus
</region>

<region>
end=163405
hikey=G4
hivel=127
lokey=F#4
lovel=1
offset=6200
pitch_keycenter=F#4
sample=om28_Scoop_MF_F#4.opus
</region>

<region>
end=106122
hikey=C6
hivel=127
lokey=G#5
lovel=1
offset=8978
pitch_keycenter=G#5
sample=om28_Scoop_MF_G#5.opus
</region>

<region>
end=174474
hikey=B2
hivel=127
lokey=A#2
lovel=1
offset=3222
pitch_keycenter=A#2
sample=om28_Scoop_MF_A#2.opus
</region>

<region>
end=143538
hikey=C#5
hivel=127
lokey=C5
lovel=1
offset=7571
pitch_keycenter=C5
sample=om28_Scoop_MF_C5.opus
</region>
</group>w